<svg xmlns="http://www.w3.org/2000/svg" viewBox="0 0 116.26 98.11"><defs><style>.cls-1{fill:#dbdbdb;}.cls-2{fill:#fff;}</style></defs><g id="레이어_1" data-name="레이어 1"><path class="cls-1" d="M116.25,53.15c-.07,11.44-4.16,22.75-12.36,30.63-10,9.6-24.37,13.12-38.18,14-13.5.9-27.24-.33-40-4.73C18.23,90.53,10.9,86.73,6.06,80.51c0,0-.06-.08-.07-.11C-8.31,61.93,4.76,33.18,26.37,28.08c6.37-1.52,13-1.1,19.59-1.23s13.38-.92,18.91-4.45,9.28-10.54,7.26-16.78c-.59-1.82-1.44-4.26.18-5.3,1-.6,2.18-.24,3.22.15.23.07.43.16.66.25C92.28,7,106.56,19.09,112.94,35.13A47.72,47.72,0,0,1,116.25,53.15Z"/><rect class="cls-2" x="36.29" y="48.35" width="13.28" height="1.41" transform="translate(47.26 -15.99) rotate(45)"/><rect class="cls-2" x="36.29" y="48.35" width="13.28" height="1.41" transform="translate(107.97 53.38) rotate(135)"/><rect class="cls-2" x="66.69" y="48.35" width="13.28" height="1.41" transform="translate(56.16 -37.48) rotate(45)"/><rect class="cls-2" x="66.69" y="48.35" width="13.28" height="1.41" transform="translate(159.87 31.89) rotate(135)"/><ellipse class="cls-2" cx="58.13" cy="73.04" rx="5.64" ry="9.19"/></g></svg>