<svg xmlns="http://www.w3.org/2000/svg" viewBox="0 0 130.23 118.22"><defs><style>.cls-1{fill:#fff;}</style></defs><g id="레이어_1" data-name="레이어 1"><path class="cls-1" d="M119.93,45.19c-6.38-16-20.66-28.15-36.75-34.41-.23-.09-.43-.18-.66-.25-1-.39-2.27-.75-3.22-.15-1.62,1-.77,3.48-.18,5.3,2,6.24-1.74,13.23-7.26,16.78S59.51,36.78,53,36.91s-13.22-.29-19.59,1.23C11.75,43.24-1.32,72,13,90.46c0,0,0,.07.07.11,4.84,6.22,12.17,10,19.62,12.59,12.79,4.4,26.53,5.63,40,4.73,13.81-.93,28.19-4.45,38.18-14,8.2-7.88,12.29-19.19,12.36-30.63A47.72,47.72,0,0,0,119.93,45.19ZM42.21,48.84c.36-1.33,2.1-2.3,3.89-2.16s2.95,1.34,2.59,2.67-2.11,2.31-3.9,2.17S41.85,50.18,42.21,48.84ZM54.13,68c0,.75-1.29.84-1.29.84-2.34.51-7.48,0-7.48,0-4.78-.52-6.91-2.65-6.91-2.65a6.6,6.6,0,0,1-2-6.11.75.75,0,0,1,.68-.62c.82.1.64.52.64.52a6.74,6.74,0,0,0,.51,2.91c1.83,4.18,8.49,4.43,8.49,4.43A36.64,36.64,0,0,0,53,67.22C54.27,67.25,54.13,68,54.13,68Zm10.92-12.4C64.69,57,63,58,61.16,57.81s-2.94-1.34-2.58-2.68,2.1-2.3,3.89-2.16S65.42,54.31,65.05,55.64Z"/></g></svg>