<svg xmlns="http://www.w3.org/2000/svg" viewBox="0 0 130.23 118.22"><defs><style>.cls-1{fill:#ffc022;}.cls-2{fill:#806011;}.cls-3{fill:#ffd66e;}.cls-4{fill:#fff;}</style></defs><g id="레이어_1" data-name="레이어 1"><path class="cls-1" d="M116.26,53.15c-.07,11.44-4.16,22.75-12.36,30.63-10,9.59-24.37,13.12-38.19,14-13.49.9-27.23-.33-40-4.73-7.45-2.57-14.77-6.37-19.61-12.59L6,80.4C-8.3,61.93,4.76,33.17,26.37,28.08c6.38-1.52,13-1.1,19.59-1.23s13.39-.92,18.92-4.45,9.28-10.54,7.26-16.78c-.59-1.83-1.44-4.26.17-5.3,1-.6,2.18-.24,3.23.15.22.07.43.16.65.25C92.29,7,106.57,19.09,113,35.13A47.92,47.92,0,0,1,116.26,53.15Z"/><ellipse class="cls-2" cx="54.83" cy="45.33" rx="3.32" ry="2.41" transform="translate(-6.03 8.49) rotate(-8.39)"/><path class="cls-3" d="M128.7,83.07c-7.58,20.52-41.07,36.24-74.82,35.09C20.94,117-.08,100.28,6,80.4l.08.11c4.84,6.22,12.16,10,19.61,12.59,12.8,4.4,26.54,5.63,40,4.73,13.82-.93,28.2-4.46,38.19-14,8.2-7.88,12.29-19.19,12.36-30.63C127.87,60.42,133.05,71.26,128.7,83.07Z"/><ellipse class="cls-2" cx="38.46" cy="39.04" rx="3.32" ry="2.41" transform="translate(-5.29 6.03) rotate(-8.39)"/><ellipse class="cls-4" cx="73.8" cy="23.1" rx="5.63" ry="2.27" transform="translate(-2.58 11.02) rotate(-8.39)"/><path class="cls-2" d="M30.79,49.94s.18-.42-.64-.52a.75.75,0,0,0-.68.62,6.59,6.59,0,0,0,2,6.1s2.14,2.14,6.91,2.66c0,0,5.14.53,7.48,0,0,0,1.26-.09,1.29-.84,0,0,.15-.79-1.12-.82a36.49,36.49,0,0,1-6.23.12S33.13,57,31.3,52.85A6.74,6.74,0,0,1,30.79,49.94Z"/></g></svg>