<svg xmlns="http://www.w3.org/2000/svg" viewBox="0 0 122.26 104.11"><defs><style>.cls-1{fill:none;stroke-width:6px;}.cls-1,.cls-2{stroke:#c44128;stroke-miterlimit:10;}.cls-2{fill:#c44128;stroke-width:2px;}</style></defs><g id="레이어_1" data-name="레이어 1"><path class="cls-1" d="M119.26,56.15c-.08,11.44-4.16,22.76-12.36,30.64-10,9.59-24.37,13.11-38.19,14-13.49.9-27.23-.33-40-4.73-7.45-2.57-14.77-6.38-19.61-12.6A.28.28,0,0,1,9,83.4C-5.3,64.93,7.76,36.18,29.37,31.08c6.38-1.51,13-1.09,19.59-1.23s13.39-.91,18.91-4.44,9.29-10.54,7.27-16.79c-.59-1.82-1.44-4.26.17-5.29,1-.61,2.18-.25,3.23.15.22.07.43.16.65.24C95.28,10,109.57,22.09,116,38.14A47.9,47.9,0,0,1,119.26,56.15Z"/><path class="cls-2" d="M50.14,61c0,.75-1.29.84-1.29.84-2.34.5-7.48,0-7.48,0-4.77-.51-6.91-2.65-6.91-2.65a6.6,6.6,0,0,1-2-6.11.76.76,0,0,1,.68-.62c.82.1.64.53.64.53a6.72,6.72,0,0,0,.51,2.9c1.83,4.18,8.49,4.43,8.49,4.43A35.89,35.89,0,0,0,49,60.17C50.29,60.19,50.14,61,50.14,61Z"/><path class="cls-2" d="M44.7,42.3c-.36,1.34-2.1,2.31-3.89,2.16s-3-1.34-2.59-2.67,2.11-2.31,3.89-2.17S45.06,41,44.7,42.3Z"/><path class="cls-2" d="M61.07,48.59c-.36,1.34-2.1,2.31-3.89,2.16s-3-1.33-2.59-2.67,2.11-2.31,3.89-2.17S61.43,47.25,61.07,48.59Z"/></g></svg>